<svg xmlns="http://www.w3.org/2000/svg" xml:space="preserve" viewBox="0 0 1024 672"><path d="M614.37 340.643c-13.736-12.399-26.454-25.399-41.032-36.335-14.737-11.056-31.535-16.127-49.58-17.975-25.84-2.648-51.792-3.57-77.698-5.215-39.863-2.532-79.702-5.432-119.624-6.946-1.937-.073-3.88-.009-7.026-.009 3.48 3.6 6.789 4.887 10.239 5.901 56.375 16.573 112.753 33.137 169.13 49.701 10.06 2.956 20.083 6.05 30.192 8.83 25.773 7.087 39.644 24.391 41.889 50.499 3.433 39.924-25.44 69.66-56.72 74.587-11.795 1.858-23.19-.227-34.32-4.244-36.191-13.058-71.852-27.485-107.645-41.572-1.08-.425-2.188-.777-4.272-1.512 3.608 6.71 6.958 12.647 10.036 18.721 7.89 15.573 17.292 30.465 21.914 47.534 6.637 24.514 4.44 47.738-11.736 68.144-26.84 33.858-75.773 31.716-100.19-4.118-9.079-13.326-14.91-28.253-20.677-43.172-27.381-70.834-54.749-141.673-81.982-212.563-5.429-14.13-11.707-27.992-15.169-42.81-13.042-55.828 24.193-110.953 72.107-120.785a130 130 0 0 1 24.773-2.661c42.663-.471 85.309.863 127.957 1.505 23.156.35 46.321.13 69.467.852 39.635 1.236 79.28 1.574 118.927 2.12 28.308.39 56.608 1.493 84.923 1.883 30.983.425 61.97.91 92.939 1.884 18.332.577 36.588 2.32 53.215 11.344 20.268 11.002 32.316 28.804 40.824 49.46 7.323 17.777 9.929 36.313 10.383 55.56.603 25.608-3.042 50.25-13.63 73.465-17.062 37.412-43.963 64.604-84.497 75.829-30.432 8.427-59.794 3.215-87.968-9.809-23.294-10.767-42.597-27.182-61.206-44.476a546 546 0 0 0-3.943-3.617m-86.295 19.752c-53.517-15.648-107.045-31.26-160.545-46.967-16.922-4.968-34.132-9.074-50.473-15.849-9.735-4.036-17.828-10.157-20.643-20.92-3.326-12.715 3.48-22.6 15.3-23.246 9.362-.512 18.644.148 27.914.568 32.09 1.453 64.156 3.36 96.214 5.475 30.218 1.992 60.47 3.348 90.649 6.071 24.848 2.242 46.822 10.818 65.938 26.891 17.484 14.701 33.623 30.874 50.738 45.977 16.859 14.878 34.921 27.765 56.202 35.686 44.234 16.465 89.832 4.075 117.793-33.758 31.358-42.431 35.01-89.581 19.047-138.613-5.948-18.27-18.107-32.495-36.042-40.925-13.171-6.19-27.404-7.087-41.507-7.305-37.98-.588-75.957-1.378-113.935-1.925-51.475-.741-102.932-2.05-154.396-3.21-25.65-.578-51.308-1.133-76.962-1.117-50.151.032-100.262-3.12-150.42-1.867-24.122.602-44.058 10.214-58.279 29.85-18.331 25.313-21.206 53.092-10.135 82.033 29.684 77.595 59.674 155.072 89.605 232.572 5.456 14.128 10.666 28.39 18.821 41.297 8.08 12.786 18.858 21.84 34.555 22.472 27.025 1.087 46.129-20.793 44.634-50.436-.874-17.32-8.004-32.859-16.005-47.944-5.775-10.889-11.742-21.676-17.54-32.553-2.04-3.827-3.604-7.886-4.547-12.127-2.624-11.8 4.885-19.402 16.603-17 5.423 1.113 10.52 3.164 15.655 5.092 35.543 13.348 71.036 26.832 106.605 40.11 10.195 3.807 20.535 6.476 31.676 3.495 18.472-4.942 33.03-21.458 35.139-40.557 2.207-19.987-4.9-33.906-21.659-41.27"/><path d="M304 168.835c36.976 1.327 73.483.273 109.956 1.273 28.992.795 57.982.241 86.969.727 43.81.735 87.621 1.392 131.431 2.152 33.646.583 67.296 1.087 100.933 2.028 10.947.306 21.919.586 32.833 2.398 25.849 4.291 42.902 19.206 50.23 43.69 11.006 36.769 6.309 71.682-17.918 102.43-22.138 28.096-57.205 37.429-91.272 25.415-22.162-7.815-40.27-21.77-57.493-37.222-17.504-15.703-33.08-33.373-50.544-49.108-20.49-18.462-44.695-26.957-72.102-27.328-47.644-.645-95.292-1.236-142.926-2.377-26.657-.638-53.314-.487-79.968-.923a81 81 0 0 0-7.992.247c-11.153.918-18.642 8.79-19.108 19.988-1.088 26.113 19.41 53.945 46.334 62.24 35.157 10.833 70.414 21.344 105.636 31.965 28.21 8.506 56.434 16.964 84.648 25.455 10.255 3.087 18.827 7.945 20.548 19.864 2.932 20.312-14.818 38.578-35.229 35.95-12.132-1.562-23.456-6.203-34.938-10.16-43.6-15.025-86.916-30.873-130.79-45.102a4 4 0 0 0-.482-.133c-4.106-.771-8.532-4.027-12.277-.311-4.143 4.11-1.727 9.202-.086 13.626 5.567 15.013 12.784 29.279 20.15 43.478 9.654 18.607 20.839 36.5 27.365 56.598 3.798 11.695 5.007 23.409-1.323 34.84-9.975 18.012-34.71 20.196-47.553 4.049-4.931-6.2-8.086-13.371-10.51-20.868-8.563-26.49-19.984-51.887-29.897-77.86-20.366-53.367-41.563-106.419-61.65-159.889-8.785-23.385-8.071-46.845 6.496-68.328 11.93-17.594 29.134-26.128 50.074-28.042 9.99-.913 19.968-.627 30.455-.762m356.737 124.92c1.501 1.318 2.986 2.654 4.506 3.951 14.234 12.15 28.852 23.697 46.65 30.39 29.593 11.132 59.228 1.262 76.144-25.427 12.924-20.392 15.152-42.763 11.061-65.85-4.297-24.258-17.298-36.214-41.663-39.615-15.886-2.217-31.939-1.246-47.894-1.612-38.633-.884-77.28-1.163-115.92-2.12-40.798-1.01-81.61-1.486-122.418-2.054-32.986-.458-65.974-.688-98.96-1.052q-25.24-.278-50.477-.672c-16.642-.26-33.297-1.28-49.905.582-17.45 1.957-32.38 14.429-37.079 31.309-3.68 13.219-2.817 26.447 2.04 39.2 13.156 34.534 26.556 68.975 39.88 103.444a180229 180229 0 0 0 51.719 133.66c1.62 4.184 3.094 8.462 5.988 12.025 1.613 1.984 3.398 3.614 6.13 3.907 5.37.577 8.667-2.776 9.183-9.327.853-10.85-3.72-20.086-8.497-29.315-9.418-18.195-19.09-36.273-27.962-54.733-6.322-13.155-12.905-26.301-15.164-41.067-2.283-14.925 7.744-28.154 22.755-29.53 6.511-.596 12.548 1.242 18.535 3.32 51.12 17.74 102.429 34.922 153.823 51.853 3.83 1.262 7.701 2.31 11.746 1.336 4.353-1.048 7.66-3.127 7.933-8.268.274-5.166-3.65-5.746-7.113-6.783-40.338-12.08-80.718-24.02-121.02-36.221-25.8-7.81-52.034-14.3-77.174-24.16-29.3-11.49-53.123-47.635-51.757-79.126.9-20.754 14.148-36.581 33.82-39.325 9.264-1.293 18.551-1.051 27.882-.934 28.153.352 56.308.568 84.462.942 43.64.58 87.284.676 130.912 2.153 30.213 1.023 56.584 11.611 79.065 31.516 16.836 14.906 31.262 32.338 48.769 47.602"/></svg>